<?xml version="1.0" encoding="UTF-8"?>
<svg xmlns="http://www.w3.org/2000/svg" viewBox="0 0 881.25 881.25">
  <defs>
    <style>
      .cls-1 {
        fill: #fff;
      }

      .cls-1, .cls-2, .cls-3 {
        stroke-miterlimit: 10;
      }

      .cls-1, .cls-3 {
        stroke: #fff;
      }

      .cls-2 {
        stroke: #bf0f43;
      }

      .cls-2, .cls-3 {
        fill: #bf0f43;
      }
    </style>
  </defs>
  <g id="Calque_2">
    <g>
      <path class="cls-2" d="M721.24,562.48h0c57.12-51.59,91.81-119.41,91.81-193.71h0c0-161.54-163.89-292.49-366.05-292.49h0c-202.17,0-366.05,130.95-366.05,292.49h0c0,161.54,163.89,292.49,366.05,292.49h0c71.05,0,138.05-16.63,194.2-44.63"/>
      <path class="cls-2" d="M721.3,562.43c-.29.27-.16.54-.16.54l62.65,115.59.16.41-136.39-59.61c-.64-.31-1.2-.56-1.91-.93,0,0-3.62-2.17-4.46-1.79"/>
    </g>
  </g>
  <g id="Calque_3">
    <path class="cls-1" d="M552.61,508.92h-214.81c-70.85,0-128.29-57.44-128.29-128.29h0c0-70.85,57.44-128.29,128.29-128.29h65.52s149.29,0,149.29,0c70.85,0,128.29,57.44,128.29,128.29h0c0,70.85-57.44,128.29-128.29,128.29Z"/>
    <path class="cls-1" d="M401.82,252.34h0c0-16.39,13.29-29.67,29.67-29.67h34.79c16.39,0,29.67,13.29,29.67,29.67h0s-94.14,0-94.14,0Z"/>
    <path class="cls-3" d="M536.71,468.92h-178.92c-59.01,0-106.85-40.24-106.85-89.88h0c0-49.64,47.84-89.89,106.85-89.89h54.57s124.35,0,124.35,0c59.01,0,106.85,40.24,106.85,89.88h0c0,49.64-47.84,89.89-106.85,89.89Z"/>
    <rect class="cls-1" x="334.04" y="352.36" width="67.78" height="67.78" rx="33.89" ry="33.89"/>
    <rect class="cls-1" x="495.96" y="352.36" width="67.78" height="67.78" rx="33.89" ry="33.89"/>
    <path class="cls-1" d="M214.18,408.89c-15.61,0-28.27-12.66-28.27-28.27h0c0-15.61,12.66-28.27,28.27-28.27"/>
    <rect class="cls-1" x="432.91" y="137.81" width="27.87" height="27.87" rx="13.93" ry="13.93"/>
    <rect class="cls-1" x="441.66" y="155.13" width="10.38" height="111.63" rx="5.19" ry="5.19"/>
    <path class="cls-1" d="M677.13,352.36h0c15.61,0,28.27,12.66,28.27,28.27h0c0,15.61-12.66,28.27-28.27,28.27h0"/>
  </g>
</svg>